<?xml version="1.0" encoding="UTF-8" standalone="no"?>
<!DOCTYPE svg PUBLIC "-//W3C//DTD SVG 1.1//EN"
 "http://www.w3.org/Graphics/SVG/1.1/DTD/svg11.dtd">
<!-- Generated by graphviz version 2.43.20190912.0211 (20190912.0211)
 -->
<!-- Title: G Pages: 1 -->
<svg width="479pt" height="584pt"
 viewBox="0.00 0.00 479.00 584.47" xmlns="http://www.w3.org/2000/svg" xmlns:xlink="http://www.w3.org/1999/xlink">
<g id="graph0" class="graph" transform="scale(1 1) rotate(0) translate(4 580.47)">
<title>G</title>
<polygon fill="white" stroke="transparent" points="-4,4 -4,-580.47 475,-580.47 475,4 -4,4"/>
<g id="clust1" class="cluster">
<title>cluster_MaTM</title>
<polygon fill="none" stroke="black" points="8,-8 8,-568.47 364,-568.47 364,-8 8,-8"/>
<text text-anchor="middle" x="186" y="-15.8" font-family="Times,serif" font-size="14.00">MaTM</text>
</g>
<!-- MaTM_main_daemon -->
<g id="node1" class="node">
<title>MaTM_main_daemon</title>
<ellipse fill="#995252" stroke="black" cx="316" cy="-67.99" rx="39.7" ry="28.98"/>
<text text-anchor="middle" x="316" y="-76.49" font-family="Helvetica,sans-Serif" font-size="10.00" fill="#ffffff">MaTM.</text>
<text text-anchor="middle" x="316" y="-65.49" font-family="Helvetica,sans-Serif" font-size="10.00" fill="#ffffff">main.</text>
<text text-anchor="middle" x="316" y="-54.49" font-family="Helvetica,sans-Serif" font-size="10.00" fill="#ffffff">daemon</text>
</g>
<!-- MaTM_services_dbus -->
<g id="node3" class="node">
<title>MaTM_services_dbus</title>
<ellipse fill="#bf2121" stroke="black" cx="253" cy="-255.96" rx="42.35" ry="28.98"/>
<text text-anchor="middle" x="253" y="-264.46" font-family="Helvetica,sans-Serif" font-size="10.00" fill="#ffffff">MaTM.</text>
<text text-anchor="middle" x="253" y="-253.46" font-family="Helvetica,sans-Serif" font-size="10.00" fill="#ffffff">services.</text>
<text text-anchor="middle" x="253" y="-242.46" font-family="Helvetica,sans-Serif" font-size="10.00" fill="#ffffff">dbus</text>
</g>
<!-- MaTM_main_daemon&#45;&gt;MaTM_services_dbus -->
<g id="edge2" class="edge">
<title>MaTM_main_daemon&#45;&gt;MaTM_services_dbus</title>
<path fill="none" stroke="black" d="M291.72,-91.28C280.98,-102.64 269.37,-117.35 263,-132.98 252.2,-159.5 250,-191.89 250.34,-216.63"/>
<polygon fill="#000000" stroke="black" points="246.84,-216.83 250.62,-226.73 253.84,-216.63 246.84,-216.83"/>
</g>
<!-- MaTM_services_daemon -->
<g id="node11" class="node">
<title>MaTM_services_daemon</title>
<ellipse fill="#964040" stroke="black" cx="314" cy="-161.97" rx="42.35" ry="28.98"/>
<text text-anchor="middle" x="314" y="-170.47" font-family="Helvetica,sans-Serif" font-size="10.00" fill="#ffffff">MaTM.</text>
<text text-anchor="middle" x="314" y="-159.47" font-family="Helvetica,sans-Serif" font-size="10.00" fill="#ffffff">services.</text>
<text text-anchor="middle" x="314" y="-148.47" font-family="Helvetica,sans-Serif" font-size="10.00" fill="#ffffff">daemon</text>
</g>
<!-- MaTM_main_daemon&#45;&gt;MaTM_services_daemon -->
<g id="edge1" class="edge">
<title>MaTM_main_daemon&#45;&gt;MaTM_services_daemon</title>
<path fill="none" stroke="black" d="M315.39,-97.09C315.21,-105.13 315.02,-114.03 314.83,-122.57"/>
<polygon fill="#000000" stroke="black" points="311.33,-122.66 314.61,-132.73 318.33,-122.81 311.33,-122.66"/>
</g>
<!-- MaTM_theming -->
<g id="node2" class="node">
<title>MaTM_theming</title>
<ellipse fill="#d10505" stroke="black" cx="205" cy="-338.95" rx="52.96" ry="18"/>
<text text-anchor="middle" x="205" y="-336.45" font-family="Helvetica,sans-Serif" font-size="10.00" fill="#ffffff">MaTM.theming</text>
</g>
<!-- MaTM_theming_handlers -->
<g id="node4" class="node">
<title>MaTM_theming_handlers</title>
<ellipse fill="#a13535" stroke="black" cx="308" cy="-421.94" rx="42.35" ry="28.98"/>
<text text-anchor="middle" x="308" y="-430.44" font-family="Helvetica,sans-Serif" font-size="10.00" fill="#ffffff">MaTM.</text>
<text text-anchor="middle" x="308" y="-419.44" font-family="Helvetica,sans-Serif" font-size="10.00" fill="#ffffff">theming.</text>
<text text-anchor="middle" x="308" y="-408.44" font-family="Helvetica,sans-Serif" font-size="10.00" fill="#ffffff">handlers</text>
</g>
<!-- MaTM_theming&#45;&gt;MaTM_theming_handlers -->
<g id="edge12" class="edge">
<title>MaTM_theming&#45;&gt;MaTM_theming_handlers</title>
<path fill="none" stroke="black" d="M225.35,-355.95C238.83,-366.55 256.87,-380.73 272.66,-393.15"/>
<polygon fill="#000000" stroke="black" points="270.65,-396.02 280.67,-399.45 274.97,-390.52 270.65,-396.02"/>
</g>
<!-- MaTM_theming_manager -->
<g id="node10" class="node">
<title>MaTM_theming_manager</title>
<ellipse fill="#a44646" stroke="black" cx="102" cy="-421.94" rx="42.35" ry="28.98"/>
<text text-anchor="middle" x="102" y="-430.44" font-family="Helvetica,sans-Serif" font-size="10.00" fill="#ffffff">MaTM.</text>
<text text-anchor="middle" x="102" y="-419.44" font-family="Helvetica,sans-Serif" font-size="10.00" fill="#ffffff">theming.</text>
<text text-anchor="middle" x="102" y="-408.44" font-family="Helvetica,sans-Serif" font-size="10.00" fill="#ffffff">manager</text>
</g>
<!-- MaTM_theming&#45;&gt;MaTM_theming_manager -->
<g id="edge15" class="edge">
<title>MaTM_theming&#45;&gt;MaTM_theming_manager</title>
<path fill="none" stroke="black" d="M184.65,-355.95C171.17,-366.55 153.13,-380.73 137.34,-393.15"/>
<polygon fill="#000000" stroke="black" points="135.03,-390.52 129.33,-399.45 139.35,-396.02 135.03,-390.52"/>
</g>
<!-- MaTM_theming_data -->
<g id="node12" class="node">
<title>MaTM_theming_data</title>
<ellipse fill="#a44646" stroke="black" cx="205" cy="-421.94" rx="42.35" ry="28.98"/>
<text text-anchor="middle" x="205" y="-430.44" font-family="Helvetica,sans-Serif" font-size="10.00" fill="#ffffff">MaTM.</text>
<text text-anchor="middle" x="205" y="-419.44" font-family="Helvetica,sans-Serif" font-size="10.00" fill="#ffffff">theming.</text>
<text text-anchor="middle" x="205" y="-408.44" font-family="Helvetica,sans-Serif" font-size="10.00" fill="#ffffff">data</text>
</g>
<!-- MaTM_theming&#45;&gt;MaTM_theming_data -->
<g id="edge11" class="edge">
<title>MaTM_theming&#45;&gt;MaTM_theming_data</title>
<path fill="none" stroke="black" d="M205,-357.12C205,-364.53 205,-373.52 205,-382.39"/>
<polygon fill="#000000" stroke="black" points="201.5,-382.63 205,-392.63 208.5,-382.63 201.5,-382.63"/>
</g>
<!-- dbus -->
<g id="node13" class="node">
<title>dbus</title>
<polygon fill="#05c705" stroke="black" points="426,-541.7 423,-545.7 402,-545.7 399,-541.7 372,-541.7 372,-505.7 426,-505.7 426,-541.7"/>
<text text-anchor="middle" x="399" y="-521.2" font-family="Helvetica,sans-Serif" font-size="10.00" fill="#ffffff">dbus</text>
</g>
<!-- MaTM_services_dbus&#45;&gt;dbus -->
<g id="edge16" class="edge">
<title>MaTM_services_dbus&#45;&gt;dbus</title>
<path fill="none" stroke="black" d="M364,-403.12C378.59,-434.58 388.27,-471.28 393.68,-495.65"/>
<polygon fill="#000000" stroke="black" points="390.28,-496.51 395.79,-505.56 397.13,-495.05 390.28,-496.51"/>
</g>
<!-- MaTM_theming_handlers_polybar -->
<g id="node8" class="node">
<title>MaTM_theming_handlers_polybar</title>
<ellipse fill="#ac4949" stroke="black" cx="310" cy="-523.7" rx="43.68" ry="36.54"/>
<text text-anchor="middle" x="310" y="-537.7" font-family="Helvetica,sans-Serif" font-size="10.00" fill="#ffffff">MaTM.</text>
<text text-anchor="middle" x="310" y="-526.7" font-family="Helvetica,sans-Serif" font-size="10.00" fill="#ffffff">theming.</text>
<text text-anchor="middle" x="310" y="-515.7" font-family="Helvetica,sans-Serif" font-size="10.00" fill="#ffffff">handlers.</text>
<text text-anchor="middle" x="310" y="-504.7" font-family="Helvetica,sans-Serif" font-size="10.00" fill="#ffffff">polybar</text>
</g>
<!-- MaTM_theming_handlers&#45;&gt;MaTM_theming_handlers_polybar -->
<g id="edge13" class="edge">
<title>MaTM_theming_handlers&#45;&gt;MaTM_theming_handlers_polybar</title>
<path fill="none" stroke="black" d="M308.56,-450.99C308.72,-458.95 308.9,-467.82 309.07,-476.54"/>
<polygon fill="#000000" stroke="black" points="305.58,-476.72 309.28,-486.65 312.58,-476.58 305.58,-476.72"/>
</g>
<!-- MaTM_theming_handlers_spicetify -->
<g id="node9" class="node">
<title>MaTM_theming_handlers_spicetify</title>
<ellipse fill="#ac4949" stroke="black" cx="204" cy="-523.7" rx="43.68" ry="36.54"/>
<text text-anchor="middle" x="204" y="-537.7" font-family="Helvetica,sans-Serif" font-size="10.00" fill="#ffffff">MaTM.</text>
<text text-anchor="middle" x="204" y="-526.7" font-family="Helvetica,sans-Serif" font-size="10.00" fill="#ffffff">theming.</text>
<text text-anchor="middle" x="204" y="-515.7" font-family="Helvetica,sans-Serif" font-size="10.00" fill="#ffffff">handlers.</text>
<text text-anchor="middle" x="204" y="-504.7" font-family="Helvetica,sans-Serif" font-size="10.00" fill="#ffffff">spicetify</text>
</g>
<!-- MaTM_theming_handlers&#45;&gt;MaTM_theming_handlers_spicetify -->
<g id="edge14" class="edge">
<title>MaTM_theming_handlers&#45;&gt;MaTM_theming_handlers_spicetify</title>
<path fill="none" stroke="black" d="M283.88,-446.08C270.8,-458.63 254.37,-474.38 239.83,-488.33"/>
<polygon fill="#000000" stroke="black" points="237.21,-485.99 232.42,-495.44 242.06,-491.04 237.21,-485.99"/>
</g>
<!-- MaTM_theming_colours -->
<g id="node5" class="node">
<title>MaTM_theming_colours</title>
<ellipse fill="#c82323" stroke="black" cx="100" cy="-523.7" rx="42.35" ry="28.98"/>
<text text-anchor="middle" x="100" y="-532.2" font-family="Helvetica,sans-Serif" font-size="10.00" fill="#ffffff">MaTM.</text>
<text text-anchor="middle" x="100" y="-521.2" font-family="Helvetica,sans-Serif" font-size="10.00" fill="#ffffff">theming.</text>
<text text-anchor="middle" x="100" y="-510.2" font-family="Helvetica,sans-Serif" font-size="10.00" fill="#ffffff">colours</text>
</g>
<!-- MaTM_main_rofi -->
<g id="node6" class="node">
<title>MaTM_main_rofi</title>
<ellipse fill="#924e4e" stroke="black" cx="71" cy="-67.99" rx="54.99" ry="18"/>
<text text-anchor="middle" x="71" y="-65.49" font-family="Helvetica,sans-Serif" font-size="10.00" fill="#ffffff">MaTM.main.rofi</text>
</g>
<!-- MaTM_main_rofi&#45;&gt;MaTM_theming -->
<g id="edge6" class="edge">
<title>MaTM_main_rofi&#45;&gt;MaTM_theming</title>
<path fill="none" stroke="black" d="M79.38,-85.82C102.08,-131.38 164.88,-257.41 192.12,-312.09"/>
<polygon fill="#000000" stroke="black" points="189.03,-313.74 196.62,-321.13 195.29,-310.62 189.03,-313.74"/>
</g>
<!-- MaTM_main_rofi&#45;&gt;MaTM_services_dbus -->
<g id="edge4" class="edge">
<title>MaTM_main_rofi&#45;&gt;MaTM_services_dbus</title>
<path fill="none" stroke="black" d="M88,-85.11C101.44,-97.94 120.6,-116.43 137,-132.98 167,-163.28 200.49,-198.66 223.74,-223.49"/>
<polygon fill="#000000" stroke="black" points="221.22,-225.93 230.61,-230.84 226.34,-221.15 221.22,-225.93"/>
</g>
<!-- MaTM_main_rofi&#45;&gt;MaTM_theming_colours -->
<g id="edge8" class="edge">
<title>MaTM_main_rofi&#45;&gt;MaTM_theming_colours</title>
<path fill="none" stroke="black" d="M66.38,-86.02C57.96,-118.57 41,-192 41,-254.96 41,-254.96 41,-254.96 41,-339.95 41,-389.47 34.28,-404.31 51,-450.93 56,-464.87 64.37,-478.68 72.79,-490.4"/>
<polygon fill="#000000" stroke="black" points="70.09,-492.63 78.89,-498.53 75.7,-488.43 70.09,-492.63"/>
</g>
<!-- MaTM_main_msg -->
<g id="node7" class="node">
<title>MaTM_main_msg</title>
<ellipse fill="#9f5656" stroke="black" cx="201" cy="-67.99" rx="57.88" ry="18"/>
<text text-anchor="middle" x="201" y="-65.49" font-family="Helvetica,sans-Serif" font-size="10.00" fill="#ffffff">MaTM.main.msg</text>
</g>
<!-- MaTM_main_msg&#45;&gt;MaTM_services_dbus -->
<g id="edge3" class="edge">
<title>MaTM_main_msg&#45;&gt;MaTM_services_dbus</title>
<path fill="none" stroke="black" d="M205.8,-86.15C214.12,-115.91 231.41,-177.73 242.59,-217.73"/>
<polygon fill="#000000" stroke="black" points="239.23,-218.7 245.29,-227.39 245.97,-216.82 239.23,-218.7"/>
</g>
<!-- MaTM_theming_manager&#45;&gt;MaTM_theming_colours -->
<g id="edge10" class="edge">
<title>MaTM_theming_manager&#45;&gt;MaTM_theming_colours</title>
<path fill="none" stroke="black" d="M101.44,-450.99C101.23,-461.3 100.99,-473.16 100.77,-484.22"/>
<polygon fill="#000000" stroke="black" points="97.27,-484.44 100.57,-494.51 104.26,-484.58 97.27,-484.44"/>
</g>
<!-- MaTM_services_daemon&#45;&gt;MaTM_theming -->
<g id="edge7" class="edge">
<title>MaTM_services_daemon&#45;&gt;MaTM_theming</title>
<path fill="none" stroke="black" d="M318.85,-190.82C321.91,-217.25 322.35,-256.97 304,-284.95 292.38,-302.66 272.8,-314.88 254.1,-323.09"/>
<polygon fill="#000000" stroke="black" points="252.67,-319.89 244.74,-326.91 255.32,-326.37 252.67,-319.89"/>
</g>
<!-- MaTM_services_daemon&#45;&gt;MaTM_services_dbus -->
<g id="edge5" class="edge">
<title>MaTM_services_daemon&#45;&gt;MaTM_services_dbus</title>
<path fill="none" stroke="black" d="M297.01,-188.6C290.45,-198.48 282.86,-209.94 275.84,-220.52"/>
<polygon fill="#000000" stroke="black" points="272.72,-218.88 270.11,-229.15 278.56,-222.75 272.72,-218.88"/>
</g>
<!-- gi -->
<g id="node14" class="node">
<title>gi</title>
<polygon fill="#43439d" stroke="black" points="471,-439.94 468,-443.94 447,-443.94 444,-439.94 417,-439.94 417,-403.94 471,-403.94 471,-439.94"/>
<text text-anchor="middle" x="444" y="-419.44" font-family="Helvetica,sans-Serif" font-size="10.00" fill="#ffffff">gi</text>
</g>
<!-- MaTM_services_daemon&#45;&gt;gi -->
<g id="edge17" class="edge">
<title>MaTM_services_daemon&#45;&gt;gi</title>
<path fill="none" stroke="black" d="M364,-247.2C377.28,-270.76 391.2,-296.58 403,-320.95 414.76,-345.22 426.23,-373.75 434.04,-394.11"/>
<polygon fill="#000000" stroke="black" points="430.85,-395.56 437.67,-403.67 437.39,-393.08 430.85,-395.56"/>
</g>
<!-- MaTM_theming_data&#45;&gt;MaTM_theming_colours -->
<g id="edge9" class="edge">
<title>MaTM_theming_data&#45;&gt;MaTM_theming_colours</title>
<path fill="none" stroke="black" d="M180.91,-445.83C166.34,-459.67 147.6,-477.48 131.82,-492.47"/>
<polygon fill="#000000" stroke="black" points="129.18,-490.15 124.34,-499.57 134,-495.22 129.18,-490.15"/>
</g>
</g>
</svg>
