<?xml version="1.0" encoding="UTF-8" standalone="no"?>
<!DOCTYPE svg PUBLIC "-//W3C//DTD SVG 1.1//EN"
 "http://www.w3.org/Graphics/SVG/1.1/DTD/svg11.dtd">
<!-- Generated by graphviz version 2.43.20190912.0211 (20190912.0211)
 -->
<!-- Title: G Pages: 1 -->
<svg width="740pt" height="751pt"
 viewBox="0.00 0.00 740.00 751.47" xmlns="http://www.w3.org/2000/svg" xmlns:xlink="http://www.w3.org/1999/xlink">
<g id="graph0" class="graph" transform="scale(1 1) rotate(0) translate(4 747.47)">
<title>G</title>
<polygon fill="white" stroke="transparent" points="-4,4 -4,-747.47 736,-747.47 736,4 -4,4"/>
<g id="clust1" class="cluster">
<title>cluster_MaTM</title>
<polygon fill="none" stroke="black" points="8,-8 8,-568.47 642,-568.47 642,-8 8,-8"/>
<text text-anchor="middle" x="325" y="-15.8" font-family="Times,serif" font-size="14.00">MaTM</text>
</g>
<!-- MaTM_theming_handlers_urxvt -->
<g id="node1" class="node">
<title>MaTM_theming_handlers_urxvt</title>
<ellipse fill="#ac4949" stroke="black" cx="484" cy="-523.7" rx="43.68" ry="36.54"/>
<text text-anchor="middle" x="484" y="-537.7" font-family="Helvetica,sans-Serif" font-size="10.00" fill="#ffffff">MaTM.</text>
<text text-anchor="middle" x="484" y="-526.7" font-family="Helvetica,sans-Serif" font-size="10.00" fill="#ffffff">theming.</text>
<text text-anchor="middle" x="484" y="-515.7" font-family="Helvetica,sans-Serif" font-size="10.00" fill="#ffffff">handlers.</text>
<text text-anchor="middle" x="484" y="-504.7" font-family="Helvetica,sans-Serif" font-size="10.00" fill="#ffffff">urxvt</text>
</g>
<!-- MaTM_services_dbus -->
<g id="node2" class="node">
<title>MaTM_services_dbus</title>
<ellipse fill="#bf2121" stroke="black" cx="469" cy="-255.96" rx="42.35" ry="28.98"/>
<text text-anchor="middle" x="469" y="-264.46" font-family="Helvetica,sans-Serif" font-size="10.00" fill="#ffffff">MaTM.</text>
<text text-anchor="middle" x="469" y="-253.46" font-family="Helvetica,sans-Serif" font-size="10.00" fill="#ffffff">services.</text>
<text text-anchor="middle" x="469" y="-242.46" font-family="Helvetica,sans-Serif" font-size="10.00" fill="#ffffff">dbus</text>
</g>
<!-- dbus -->
<g id="node17" class="node">
<title>dbus</title>
<polygon fill="#05c7c7" stroke="black" points="706,-541.7 703,-545.7 682,-545.7 679,-541.7 652,-541.7 652,-505.7 706,-505.7 706,-541.7"/>
<text text-anchor="middle" x="679" y="-521.2" font-family="Helvetica,sans-Serif" font-size="10.00" fill="#000000">dbus</text>
</g>
<!-- MaTM_services_dbus&#45;&gt;dbus -->
<g id="edge20" class="edge">
<title>MaTM_services_dbus&#45;&gt;dbus</title>
<path fill="none" stroke="black" d="M642,-475.87C648.38,-483.96 654.18,-491.29 659.19,-497.64"/>
<polygon fill="#000000" stroke="black" points="656.46,-499.82 665.4,-505.5 661.95,-495.48 656.46,-499.82"/>
</g>
<!-- MaTM_theming_handlers_polybar -->
<g id="node3" class="node">
<title>MaTM_theming_handlers_polybar</title>
<ellipse fill="#ac4949" stroke="black" cx="590" cy="-523.7" rx="43.68" ry="36.54"/>
<text text-anchor="middle" x="590" y="-537.7" font-family="Helvetica,sans-Serif" font-size="10.00" fill="#ffffff">MaTM.</text>
<text text-anchor="middle" x="590" y="-526.7" font-family="Helvetica,sans-Serif" font-size="10.00" fill="#ffffff">theming.</text>
<text text-anchor="middle" x="590" y="-515.7" font-family="Helvetica,sans-Serif" font-size="10.00" fill="#ffffff">handlers.</text>
<text text-anchor="middle" x="590" y="-504.7" font-family="Helvetica,sans-Serif" font-size="10.00" fill="#ffffff">polybar</text>
</g>
<!-- MaTM_services_daemon -->
<g id="node4" class="node">
<title>MaTM_services_daemon</title>
<ellipse fill="#964040" stroke="black" cx="530" cy="-161.97" rx="42.35" ry="28.98"/>
<text text-anchor="middle" x="530" y="-170.47" font-family="Helvetica,sans-Serif" font-size="10.00" fill="#ffffff">MaTM.</text>
<text text-anchor="middle" x="530" y="-159.47" font-family="Helvetica,sans-Serif" font-size="10.00" fill="#ffffff">services.</text>
<text text-anchor="middle" x="530" y="-148.47" font-family="Helvetica,sans-Serif" font-size="10.00" fill="#ffffff">daemon</text>
</g>
<!-- MaTM_services_daemon&#45;&gt;MaTM_services_dbus -->
<g id="edge5" class="edge">
<title>MaTM_services_daemon&#45;&gt;MaTM_services_dbus</title>
<path fill="none" stroke="black" d="M513.01,-188.6C506.45,-198.48 498.86,-209.94 491.84,-220.52"/>
<polygon fill="#000000" stroke="black" points="488.72,-218.88 486.11,-229.15 494.56,-222.75 488.72,-218.88"/>
</g>
<!-- MaTM_theming -->
<g id="node10" class="node">
<title>MaTM_theming</title>
<ellipse fill="#d10505" stroke="black" cx="265" cy="-338.95" rx="52.96" ry="18"/>
<text text-anchor="middle" x="265" y="-336.45" font-family="Helvetica,sans-Serif" font-size="10.00" fill="#ffffff">MaTM.theming</text>
</g>
<!-- MaTM_services_daemon&#45;&gt;MaTM_theming -->
<g id="edge7" class="edge">
<title>MaTM_services_daemon&#45;&gt;MaTM_theming</title>
<path fill="none" stroke="black" d="M536.33,-190.82C540.79,-218.2 542.51,-259.48 520,-284.95 494.93,-313.31 393.61,-327.24 326.48,-333.49"/>
<polygon fill="#000000" stroke="black" points="326.07,-330.01 316.42,-334.39 326.7,-336.98 326.07,-330.01"/>
</g>
<!-- gi -->
<g id="node18" class="node">
<title>gi</title>
<polygon fill="#70439d" stroke="black" points="732,-439.94 729,-443.94 708,-443.94 705,-439.94 678,-439.94 678,-403.94 732,-403.94 732,-439.94"/>
<text text-anchor="middle" x="705" y="-419.44" font-family="Helvetica,sans-Serif" font-size="10.00" fill="#ffffff">gi</text>
</g>
<!-- MaTM_services_daemon&#45;&gt;gi -->
<g id="edge21" class="edge">
<title>MaTM_services_daemon&#45;&gt;gi</title>
<path fill="none" stroke="black" d="M642,-288.09C649.86,-298.91 657.3,-309.93 664,-320.95 678.18,-344.26 689.48,-373.36 696.59,-394.14"/>
<polygon fill="#000000" stroke="black" points="693.36,-395.51 699.84,-403.9 700,-393.3 693.36,-395.51"/>
</g>
<!-- MaTM_main_rofi -->
<g id="node5" class="node">
<title>MaTM_main_rofi</title>
<ellipse fill="#924e4e" stroke="black" cx="265" cy="-67.99" rx="54.99" ry="18"/>
<text text-anchor="middle" x="265" y="-65.49" font-family="Helvetica,sans-Serif" font-size="10.00" fill="#ffffff">MaTM.main.rofi</text>
</g>
<!-- MaTM_main_rofi&#45;&gt;MaTM_services_dbus -->
<g id="edge4" class="edge">
<title>MaTM_main_rofi&#45;&gt;MaTM_services_dbus</title>
<path fill="none" stroke="black" d="M282.75,-85.17C317.04,-116.43 392.86,-185.55 436.45,-225.29"/>
<polygon fill="#000000" stroke="black" points="434.19,-227.96 443.94,-232.11 438.91,-222.79 434.19,-227.96"/>
</g>
<!-- MaTM_theming_colours -->
<g id="node6" class="node">
<title>MaTM_theming_colours</title>
<ellipse fill="#c82323" stroke="black" cx="58" cy="-523.7" rx="42.35" ry="28.98"/>
<text text-anchor="middle" x="58" y="-532.2" font-family="Helvetica,sans-Serif" font-size="10.00" fill="#ffffff">MaTM.</text>
<text text-anchor="middle" x="58" y="-521.2" font-family="Helvetica,sans-Serif" font-size="10.00" fill="#ffffff">theming.</text>
<text text-anchor="middle" x="58" y="-510.2" font-family="Helvetica,sans-Serif" font-size="10.00" fill="#ffffff">colours</text>
</g>
<!-- MaTM_main_rofi&#45;&gt;MaTM_theming_colours -->
<g id="edge8" class="edge">
<title>MaTM_main_rofi&#45;&gt;MaTM_theming_colours</title>
<path fill="none" stroke="black" d="M229.93,-82.12C171.6,-106.49 61,-164.62 61,-254.96 61,-254.96 61,-254.96 61,-339.95 61,-389.77 59.87,-447.22 59,-484.2"/>
<polygon fill="#000000" stroke="black" points="55.49,-484.44 58.75,-494.53 62.49,-484.61 55.49,-484.44"/>
</g>
<!-- MaTM_main_rofi&#45;&gt;MaTM_theming -->
<g id="edge6" class="edge">
<title>MaTM_main_rofi&#45;&gt;MaTM_theming</title>
<path fill="none" stroke="black" d="M265,-86.22C265,-131.77 265,-255.6 265,-310.78"/>
<polygon fill="#000000" stroke="black" points="261.5,-310.86 265,-320.86 268.5,-310.86 261.5,-310.86"/>
</g>
<!-- MaTM_theming_handlers_wallpaper -->
<g id="node7" class="node">
<title>MaTM_theming_handlers_wallpaper</title>
<ellipse fill="#964040" stroke="black" cx="164" cy="-523.7" rx="45.92" ry="36.54"/>
<text text-anchor="middle" x="164" y="-537.7" font-family="Helvetica,sans-Serif" font-size="10.00" fill="#ffffff">MaTM.</text>
<text text-anchor="middle" x="164" y="-526.7" font-family="Helvetica,sans-Serif" font-size="10.00" fill="#ffffff">theming.</text>
<text text-anchor="middle" x="164" y="-515.7" font-family="Helvetica,sans-Serif" font-size="10.00" fill="#ffffff">handlers.</text>
<text text-anchor="middle" x="164" y="-504.7" font-family="Helvetica,sans-Serif" font-size="10.00" fill="#ffffff">wallpaper</text>
</g>
<!-- PIL -->
<g id="node16" class="node">
<title>PIL</title>
<polygon fill="#4c9503" stroke="black" points="191,-743.47 188,-747.47 167,-747.47 164,-743.47 137,-743.47 137,-707.47 191,-707.47 191,-743.47"/>
<text text-anchor="middle" x="164" y="-722.97" font-family="Helvetica,sans-Serif" font-size="10.00" fill="#ffffff">PIL</text>
</g>
<!-- MaTM_theming_handlers_wallpaper&#45;&gt;PIL -->
<g id="edge19" class="edge">
<title>MaTM_theming_handlers_wallpaper&#45;&gt;PIL</title>
<path fill="none" stroke="black" d="M164,-568.47C164,-607.6 164,-663.73 164,-696.91"/>
<polygon fill="#000000" stroke="black" points="160.5,-697 164,-707 167.5,-697 160.5,-697"/>
</g>
<!-- MaTM_theming_handlers_spicetify -->
<g id="node8" class="node">
<title>MaTM_theming_handlers_spicetify</title>
<ellipse fill="#ac4949" stroke="black" cx="272" cy="-523.7" rx="43.68" ry="36.54"/>
<text text-anchor="middle" x="272" y="-537.7" font-family="Helvetica,sans-Serif" font-size="10.00" fill="#ffffff">MaTM.</text>
<text text-anchor="middle" x="272" y="-526.7" font-family="Helvetica,sans-Serif" font-size="10.00" fill="#ffffff">theming.</text>
<text text-anchor="middle" x="272" y="-515.7" font-family="Helvetica,sans-Serif" font-size="10.00" fill="#ffffff">handlers.</text>
<text text-anchor="middle" x="272" y="-504.7" font-family="Helvetica,sans-Serif" font-size="10.00" fill="#ffffff">spicetify</text>
</g>
<!-- MaTM_theming_handlers_rofi -->
<g id="node9" class="node">
<title>MaTM_theming_handlers_rofi</title>
<ellipse fill="#ac4949" stroke="black" cx="378" cy="-523.7" rx="43.68" ry="36.54"/>
<text text-anchor="middle" x="378" y="-537.7" font-family="Helvetica,sans-Serif" font-size="10.00" fill="#ffffff">MaTM.</text>
<text text-anchor="middle" x="378" y="-526.7" font-family="Helvetica,sans-Serif" font-size="10.00" fill="#ffffff">theming.</text>
<text text-anchor="middle" x="378" y="-515.7" font-family="Helvetica,sans-Serif" font-size="10.00" fill="#ffffff">handlers.</text>
<text text-anchor="middle" x="378" y="-504.7" font-family="Helvetica,sans-Serif" font-size="10.00" fill="#ffffff">rofi</text>
</g>
<!-- MaTM_theming_manager -->
<g id="node12" class="node">
<title>MaTM_theming_manager</title>
<ellipse fill="#a44646" stroke="black" cx="135" cy="-421.94" rx="42.35" ry="28.98"/>
<text text-anchor="middle" x="135" y="-430.44" font-family="Helvetica,sans-Serif" font-size="10.00" fill="#ffffff">MaTM.</text>
<text text-anchor="middle" x="135" y="-419.44" font-family="Helvetica,sans-Serif" font-size="10.00" fill="#ffffff">theming.</text>
<text text-anchor="middle" x="135" y="-408.44" font-family="Helvetica,sans-Serif" font-size="10.00" fill="#ffffff">manager</text>
</g>
<!-- MaTM_theming&#45;&gt;MaTM_theming_manager -->
<g id="edge18" class="edge">
<title>MaTM_theming&#45;&gt;MaTM_theming_manager</title>
<path fill="none" stroke="black" d="M240.85,-354.99C222.27,-366.57 196.19,-382.82 174.56,-396.29"/>
<polygon fill="#000000" stroke="black" points="172.55,-393.42 165.91,-401.68 176.25,-399.36 172.55,-393.42"/>
</g>
<!-- MaTM_theming_data -->
<g id="node13" class="node">
<title>MaTM_theming_data</title>
<ellipse fill="#a44646" stroke="black" cx="245" cy="-421.94" rx="42.35" ry="28.98"/>
<text text-anchor="middle" x="245" y="-430.44" font-family="Helvetica,sans-Serif" font-size="10.00" fill="#ffffff">MaTM.</text>
<text text-anchor="middle" x="245" y="-419.44" font-family="Helvetica,sans-Serif" font-size="10.00" fill="#ffffff">theming.</text>
<text text-anchor="middle" x="245" y="-408.44" font-family="Helvetica,sans-Serif" font-size="10.00" fill="#ffffff">data</text>
</g>
<!-- MaTM_theming&#45;&gt;MaTM_theming_data -->
<g id="edge11" class="edge">
<title>MaTM_theming&#45;&gt;MaTM_theming_data</title>
<path fill="none" stroke="black" d="M260.76,-357.12C258.86,-364.83 256.53,-374.25 254.26,-383.45"/>
<polygon fill="#000000" stroke="black" points="250.83,-382.72 251.83,-393.27 257.63,-384.4 250.83,-382.72"/>
</g>
<!-- MaTM_theming_handlers -->
<g id="node14" class="node">
<title>MaTM_theming_handlers</title>
<ellipse fill="#8a2e2e" stroke="black" cx="352" cy="-421.94" rx="42.35" ry="28.98"/>
<text text-anchor="middle" x="352" y="-430.44" font-family="Helvetica,sans-Serif" font-size="10.00" fill="#ffffff">MaTM.</text>
<text text-anchor="middle" x="352" y="-419.44" font-family="Helvetica,sans-Serif" font-size="10.00" fill="#ffffff">theming.</text>
<text text-anchor="middle" x="352" y="-408.44" font-family="Helvetica,sans-Serif" font-size="10.00" fill="#ffffff">handlers</text>
</g>
<!-- MaTM_theming&#45;&gt;MaTM_theming_handlers -->
<g id="edge12" class="edge">
<title>MaTM_theming&#45;&gt;MaTM_theming_handlers</title>
<path fill="none" stroke="black" d="M282.61,-356.34C293.3,-366.29 307.27,-379.3 319.87,-391.03"/>
<polygon fill="#000000" stroke="black" points="317.79,-393.88 327.5,-398.13 322.56,-388.75 317.79,-393.88"/>
</g>
<!-- MaTM_main_msg -->
<g id="node11" class="node">
<title>MaTM_main_msg</title>
<ellipse fill="#9f5656" stroke="black" cx="415" cy="-67.99" rx="57.88" ry="18"/>
<text text-anchor="middle" x="415" y="-65.49" font-family="Helvetica,sans-Serif" font-size="10.00" fill="#ffffff">MaTM.main.msg</text>
</g>
<!-- MaTM_main_msg&#45;&gt;MaTM_services_dbus -->
<g id="edge3" class="edge">
<title>MaTM_main_msg&#45;&gt;MaTM_services_dbus</title>
<path fill="none" stroke="black" d="M419.98,-86.15C428.62,-115.91 446.57,-177.73 458.19,-217.73"/>
<polygon fill="#000000" stroke="black" points="454.85,-218.76 461,-227.39 461.57,-216.81 454.85,-218.76"/>
</g>
<!-- MaTM_theming_manager&#45;&gt;MaTM_theming_colours -->
<g id="edge10" class="edge">
<title>MaTM_theming_manager&#45;&gt;MaTM_theming_colours</title>
<path fill="none" stroke="black" d="M115.77,-447.86C106.03,-460.47 94.07,-475.96 83.57,-489.57"/>
<polygon fill="#000000" stroke="black" points="80.59,-487.7 77.25,-497.76 86.13,-491.98 80.59,-487.7"/>
</g>
<!-- MaTM_theming_data&#45;&gt;MaTM_theming_colours -->
<g id="edge9" class="edge">
<title>MaTM_theming_data&#45;&gt;MaTM_theming_colours</title>
<path fill="none" stroke="black" d="M210.7,-439.25C202.6,-443.09 194,-447.16 186,-450.93 151.82,-467.03 141.7,-468.01 109,-486.93 104.2,-489.71 99.28,-492.8 94.48,-495.98"/>
<polygon fill="#000000" stroke="black" points="92.31,-493.22 86.02,-501.74 96.25,-499.01 92.31,-493.22"/>
</g>
<!-- MaTM_theming_handlers&#45;&gt;MaTM_theming_handlers_urxvt -->
<g id="edge16" class="edge">
<title>MaTM_theming_handlers&#45;&gt;MaTM_theming_handlers_urxvt</title>
<path fill="none" stroke="black" d="M379.99,-444.1C398.57,-458.13 423.23,-476.77 443.88,-492.38"/>
<polygon fill="#000000" stroke="black" points="441.78,-495.18 451.87,-498.42 446,-489.59 441.78,-495.18"/>
</g>
<!-- MaTM_theming_handlers&#45;&gt;MaTM_theming_handlers_polybar -->
<g id="edge13" class="edge">
<title>MaTM_theming_handlers&#45;&gt;MaTM_theming_handlers_polybar</title>
<path fill="none" stroke="black" d="M391.1,-433.24C429.38,-444.06 488.81,-462.86 537,-486.93 540.96,-488.91 544.97,-491.14 548.93,-493.5"/>
<polygon fill="#000000" stroke="black" points="547.11,-496.49 557.44,-498.81 550.81,-490.55 547.11,-496.49"/>
</g>
<!-- MaTM_theming_handlers&#45;&gt;MaTM_theming_handlers_wallpaper -->
<g id="edge17" class="edge">
<title>MaTM_theming_handlers&#45;&gt;MaTM_theming_handlers_wallpaper</title>
<path fill="none" stroke="black" d="M318.31,-439.96C310.97,-443.61 303.24,-447.43 296,-450.93 261.99,-467.38 252.03,-468.59 219,-486.93 215.09,-489.11 211.08,-491.46 207.09,-493.88"/>
<polygon fill="#000000" stroke="black" points="205.11,-490.99 198.46,-499.25 208.8,-496.93 205.11,-490.99"/>
</g>
<!-- MaTM_theming_handlers&#45;&gt;MaTM_theming_handlers_spicetify -->
<g id="edge15" class="edge">
<title>MaTM_theming_handlers&#45;&gt;MaTM_theming_handlers_spicetify</title>
<path fill="none" stroke="black" d="M332.22,-447.6C323.27,-458.77 312.47,-472.23 302.51,-484.65"/>
<polygon fill="#000000" stroke="black" points="299.64,-482.64 296.11,-492.63 305.1,-487.02 299.64,-482.64"/>
</g>
<!-- MaTM_theming_handlers&#45;&gt;MaTM_theming_handlers_rofi -->
<g id="edge14" class="edge">
<title>MaTM_theming_handlers&#45;&gt;MaTM_theming_handlers_rofi</title>
<path fill="none" stroke="black" d="M359.24,-450.73C361.43,-459.11 363.88,-468.54 366.28,-477.74"/>
<polygon fill="#000000" stroke="black" points="362.94,-478.78 368.85,-487.57 369.71,-477.02 362.94,-478.78"/>
</g>
<!-- MaTM_main_daemon -->
<g id="node15" class="node">
<title>MaTM_main_daemon</title>
<ellipse fill="#995252" stroke="black" cx="530" cy="-67.99" rx="39.7" ry="28.98"/>
<text text-anchor="middle" x="530" y="-76.49" font-family="Helvetica,sans-Serif" font-size="10.00" fill="#ffffff">MaTM.</text>
<text text-anchor="middle" x="530" y="-65.49" font-family="Helvetica,sans-Serif" font-size="10.00" fill="#ffffff">main.</text>
<text text-anchor="middle" x="530" y="-54.49" font-family="Helvetica,sans-Serif" font-size="10.00" fill="#ffffff">daemon</text>
</g>
<!-- MaTM_main_daemon&#45;&gt;MaTM_services_dbus -->
<g id="edge2" class="edge">
<title>MaTM_main_daemon&#45;&gt;MaTM_services_dbus</title>
<path fill="none" stroke="black" d="M506.64,-91.43C496.3,-102.84 485.12,-117.53 479,-132.98 468.45,-159.6 466.24,-191.99 466.51,-216.7"/>
<polygon fill="#000000" stroke="black" points="463.01,-216.87 466.76,-226.78 470.01,-216.7 463.01,-216.87"/>
</g>
<!-- MaTM_main_daemon&#45;&gt;MaTM_services_daemon -->
<g id="edge1" class="edge">
<title>MaTM_main_daemon&#45;&gt;MaTM_services_daemon</title>
<path fill="none" stroke="black" d="M530,-97.09C530,-105.13 530,-114.03 530,-122.57"/>
<polygon fill="#000000" stroke="black" points="526.5,-122.73 530,-132.73 533.5,-122.73 526.5,-122.73"/>
</g>
</g>
</svg>
