<?xml version="1.0" encoding="UTF-8" standalone="no"?>
<!DOCTYPE svg PUBLIC "-//W3C//DTD SVG 1.1//EN"
 "http://www.w3.org/Graphics/SVG/1.1/DTD/svg11.dtd">
<!-- Generated by graphviz version 2.43.20190912.0211 (20190912.0211)
 -->
<!-- Title: G Pages: 1 -->
<svg width="481pt" height="641pt"
 viewBox="0.00 0.00 481.00 640.91" xmlns="http://www.w3.org/2000/svg" xmlns:xlink="http://www.w3.org/1999/xlink">
<g id="graph0" class="graph" transform="scale(1 1) rotate(0) translate(4 636.91)">
<title>G</title>
<polygon fill="white" stroke="transparent" points="-4,4 -4,-636.91 477,-636.91 477,4 -4,4"/>
<g id="clust1" class="cluster">
<title>cluster_MaTM</title>
<polygon fill="none" stroke="black" points="8,-8 8,-624.91 364,-624.91 364,-8 8,-8"/>
<text text-anchor="middle" x="186" y="-15.8" font-family="Times,serif" font-size="14.00">MaTM</text>
</g>
<!-- MaTM_theming_manager -->
<g id="node1" class="node">
<title>MaTM_theming_manager</title>
<ellipse fill="#a44646" stroke="black" cx="211" cy="-493.94" rx="42.35" ry="28.98"/>
<text text-anchor="middle" x="211" y="-502.44" font-family="Helvetica,sans-Serif" font-size="10.00" fill="#ffffff">MaTM.</text>
<text text-anchor="middle" x="211" y="-491.44" font-family="Helvetica,sans-Serif" font-size="10.00" fill="#ffffff">theming.</text>
<text text-anchor="middle" x="211" y="-480.44" font-family="Helvetica,sans-Serif" font-size="10.00" fill="#ffffff">manager</text>
</g>
<!-- MaTM_theming_colours -->
<g id="node5" class="node">
<title>MaTM_theming_colours</title>
<ellipse fill="#c82323" stroke="black" cx="108" cy="-587.92" rx="42.35" ry="28.98"/>
<text text-anchor="middle" x="108" y="-596.42" font-family="Helvetica,sans-Serif" font-size="10.00" fill="#ffffff">MaTM.</text>
<text text-anchor="middle" x="108" y="-585.42" font-family="Helvetica,sans-Serif" font-size="10.00" fill="#ffffff">theming.</text>
<text text-anchor="middle" x="108" y="-574.42" font-family="Helvetica,sans-Serif" font-size="10.00" fill="#ffffff">colours</text>
</g>
<!-- MaTM_theming_manager&#45;&gt;MaTM_theming_colours -->
<g id="edge13" class="edge">
<title>MaTM_theming_manager&#45;&gt;MaTM_theming_colours</title>
<path fill="none" stroke="black" d="M185.8,-517.44C172.34,-529.47 155.59,-544.42 141.09,-557.38"/>
<polygon fill="#000000" stroke="black" points="138.42,-555.06 133.29,-564.33 143.08,-560.28 138.42,-555.06"/>
</g>
<!-- MaTM_theming_data -->
<g id="node2" class="node">
<title>MaTM_theming_data</title>
<ellipse fill="#a44646" stroke="black" cx="108" cy="-493.94" rx="42.35" ry="28.98"/>
<text text-anchor="middle" x="108" y="-502.44" font-family="Helvetica,sans-Serif" font-size="10.00" fill="#ffffff">MaTM.</text>
<text text-anchor="middle" x="108" y="-491.44" font-family="Helvetica,sans-Serif" font-size="10.00" fill="#ffffff">theming.</text>
<text text-anchor="middle" x="108" y="-480.44" font-family="Helvetica,sans-Serif" font-size="10.00" fill="#ffffff">data</text>
</g>
<!-- MaTM_theming_data&#45;&gt;MaTM_theming_colours -->
<g id="edge12" class="edge">
<title>MaTM_theming_data&#45;&gt;MaTM_theming_colours</title>
<path fill="none" stroke="black" d="M108,-523.04C108,-531.08 108,-539.98 108,-548.52"/>
<polygon fill="#000000" stroke="black" points="104.5,-548.68 108,-558.68 111.5,-548.68 104.5,-548.68"/>
</g>
<!-- MaTM_services_dbus -->
<g id="node3" class="node">
<title>MaTM_services_dbus</title>
<ellipse fill="#bf2121" stroke="black" cx="253" cy="-327.96" rx="42.35" ry="28.98"/>
<text text-anchor="middle" x="253" y="-336.46" font-family="Helvetica,sans-Serif" font-size="10.00" fill="#ffffff">MaTM.</text>
<text text-anchor="middle" x="253" y="-325.46" font-family="Helvetica,sans-Serif" font-size="10.00" fill="#ffffff">services.</text>
<text text-anchor="middle" x="253" y="-314.46" font-family="Helvetica,sans-Serif" font-size="10.00" fill="#ffffff">dbus</text>
</g>
<!-- dbus -->
<g id="node12" class="node">
<title>dbus</title>
<polygon fill="#22e722" stroke="black" points="426,-605.92 423,-609.92 402,-609.92 399,-605.92 372,-605.92 372,-569.92 426,-569.92 426,-605.92"/>
<text text-anchor="middle" x="399" y="-585.42" font-family="Helvetica,sans-Serif" font-size="10.00" fill="#000000">dbus</text>
</g>
<!-- MaTM_services_dbus&#45;&gt;dbus -->
<g id="edge17" class="edge">
<title>MaTM_services_dbus&#45;&gt;dbus</title>
<path fill="none" stroke="black" d="M364,-463.05C364.34,-463.68 364.67,-464.31 365,-464.95 380.82,-495.31 389.98,-533.88 394.72,-559.43"/>
<polygon fill="#000000" stroke="black" points="391.32,-560.27 396.49,-569.52 398.21,-559.06 391.32,-560.27"/>
</g>
<!-- MaTM_theming -->
<g id="node4" class="node">
<title>MaTM_theming</title>
<ellipse fill="#d10505" stroke="black" cx="211" cy="-410.95" rx="52.96" ry="18"/>
<text text-anchor="middle" x="211" y="-408.45" font-family="Helvetica,sans-Serif" font-size="10.00" fill="#ffffff">MaTM.theming</text>
</g>
<!-- MaTM_theming&#45;&gt;MaTM_theming_manager -->
<g id="edge16" class="edge">
<title>MaTM_theming&#45;&gt;MaTM_theming_manager</title>
<path fill="none" stroke="black" d="M211,-429.12C211,-436.53 211,-445.52 211,-454.39"/>
<polygon fill="#000000" stroke="black" points="207.5,-454.63 211,-464.63 214.5,-454.63 207.5,-454.63"/>
</g>
<!-- MaTM_theming&#45;&gt;MaTM_theming_data -->
<g id="edge14" class="edge">
<title>MaTM_theming&#45;&gt;MaTM_theming_data</title>
<path fill="none" stroke="black" d="M190.65,-427.95C177.17,-438.55 159.13,-452.73 143.34,-465.15"/>
<polygon fill="#000000" stroke="black" points="141.03,-462.52 135.33,-471.45 145.35,-468.02 141.03,-462.52"/>
</g>
<!-- MaTM_theming_handlers -->
<g id="node6" class="node">
<title>MaTM_theming_handlers</title>
<ellipse fill="#b03a3a" stroke="black" cx="314" cy="-493.94" rx="42.35" ry="28.98"/>
<text text-anchor="middle" x="314" y="-502.44" font-family="Helvetica,sans-Serif" font-size="10.00" fill="#ffffff">MaTM.</text>
<text text-anchor="middle" x="314" y="-491.44" font-family="Helvetica,sans-Serif" font-size="10.00" fill="#ffffff">theming.</text>
<text text-anchor="middle" x="314" y="-480.44" font-family="Helvetica,sans-Serif" font-size="10.00" fill="#ffffff">handlers</text>
</g>
<!-- MaTM_theming&#45;&gt;MaTM_theming_handlers -->
<g id="edge15" class="edge">
<title>MaTM_theming&#45;&gt;MaTM_theming_handlers</title>
<path fill="none" stroke="black" d="M231.35,-427.95C244.83,-438.55 262.87,-452.73 278.66,-465.15"/>
<polygon fill="#000000" stroke="black" points="276.65,-468.02 286.67,-471.45 280.97,-462.52 276.65,-468.02"/>
</g>
<!-- MaTM_main_rofi -->
<g id="node7" class="node">
<title>MaTM_main_rofi</title>
<ellipse fill="#9d4343" stroke="black" cx="71" cy="-139.99" rx="54.99" ry="18"/>
<text text-anchor="middle" x="71" y="-137.49" font-family="Helvetica,sans-Serif" font-size="10.00" fill="#ffffff">MaTM.main.rofi</text>
</g>
<!-- MaTM_main_rofi&#45;&gt;MaTM_services_dbus -->
<g id="edge7" class="edge">
<title>MaTM_main_rofi&#45;&gt;MaTM_services_dbus</title>
<path fill="none" stroke="black" d="M88,-157.11C101.44,-169.94 120.6,-188.43 137,-204.98 167,-235.28 200.49,-270.66 223.74,-295.49"/>
<polygon fill="#000000" stroke="black" points="221.22,-297.93 230.61,-302.84 226.34,-293.15 221.22,-297.93"/>
</g>
<!-- MaTM_main_rofi&#45;&gt;MaTM_theming -->
<g id="edge9" class="edge">
<title>MaTM_main_rofi&#45;&gt;MaTM_theming</title>
<path fill="none" stroke="black" d="M79.76,-157.82C103.48,-203.38 169.08,-329.41 197.54,-384.09"/>
<polygon fill="#000000" stroke="black" points="194.52,-385.88 202.25,-393.13 200.73,-382.64 194.52,-385.88"/>
</g>
<!-- MaTM_main_rofi&#45;&gt;MaTM_theming_colours -->
<g id="edge11" class="edge">
<title>MaTM_main_rofi&#45;&gt;MaTM_theming_colours</title>
<path fill="none" stroke="black" d="M67.3,-158.07C60.57,-190.72 47,-264.29 47,-326.96 47,-326.96 47,-326.96 47,-411.95 47,-461.47 38.57,-476.96 57,-522.93 61.75,-534.78 69.45,-546.19 77.44,-556.02"/>
<polygon fill="#000000" stroke="black" points="75,-558.55 84.16,-563.87 80.32,-554 75,-558.55"/>
</g>
<!-- MaTM_main -->
<g id="node8" class="node">
<title>MaTM_main</title>
<ellipse fill="#a13535" stroke="black" cx="201" cy="-57" rx="43.62" ry="18"/>
<text text-anchor="middle" x="201" y="-54.5" font-family="Helvetica,sans-Serif" font-size="10.00" fill="#ffffff">MaTM.main</text>
</g>
<!-- MaTM_main&#45;&gt;MaTM_main_rofi -->
<g id="edge3" class="edge">
<title>MaTM_main&#45;&gt;MaTM_main_rofi</title>
<path fill="none" stroke="black" d="M177.76,-72.48C157.26,-85.25 127.14,-104.02 104.12,-118.36"/>
<polygon fill="#000000" stroke="black" points="102,-115.55 95.36,-123.81 105.7,-121.5 102,-115.55"/>
</g>
<!-- MaTM_main_msg -->
<g id="node10" class="node">
<title>MaTM_main_msg</title>
<ellipse fill="#a44646" stroke="black" cx="201" cy="-139.99" rx="57.88" ry="18"/>
<text text-anchor="middle" x="201" y="-137.49" font-family="Helvetica,sans-Serif" font-size="10.00" fill="#ffffff">MaTM.main.msg</text>
</g>
<!-- MaTM_main&#45;&gt;MaTM_main_msg -->
<g id="edge2" class="edge">
<title>MaTM_main&#45;&gt;MaTM_main_msg</title>
<path fill="none" stroke="black" d="M201,-75.18C201,-85.81 201,-99.69 201,-111.79"/>
<polygon fill="#000000" stroke="black" points="197.5,-111.84 201,-121.84 204.5,-111.84 197.5,-111.84"/>
</g>
<!-- MaTM_main_daemon -->
<g id="node11" class="node">
<title>MaTM_main_daemon</title>
<ellipse fill="#a44646" stroke="black" cx="316" cy="-139.99" rx="39.7" ry="28.98"/>
<text text-anchor="middle" x="316" y="-148.49" font-family="Helvetica,sans-Serif" font-size="10.00" fill="#ffffff">MaTM.</text>
<text text-anchor="middle" x="316" y="-137.49" font-family="Helvetica,sans-Serif" font-size="10.00" fill="#ffffff">main.</text>
<text text-anchor="middle" x="316" y="-126.49" font-family="Helvetica,sans-Serif" font-size="10.00" fill="#ffffff">daemon</text>
</g>
<!-- MaTM_main&#45;&gt;MaTM_main_daemon -->
<g id="edge1" class="edge">
<title>MaTM_main&#45;&gt;MaTM_main_daemon</title>
<path fill="none" stroke="black" d="M222.09,-72.86C238.17,-84.18 260.71,-100.05 279.68,-113.41"/>
<polygon fill="#000000" stroke="black" points="277.91,-116.45 288.1,-119.34 281.94,-110.72 277.91,-116.45"/>
</g>
<!-- MaTM_services_daemon -->
<g id="node9" class="node">
<title>MaTM_services_daemon</title>
<ellipse fill="#964040" stroke="black" cx="314" cy="-233.97" rx="42.35" ry="28.98"/>
<text text-anchor="middle" x="314" y="-242.47" font-family="Helvetica,sans-Serif" font-size="10.00" fill="#ffffff">MaTM.</text>
<text text-anchor="middle" x="314" y="-231.47" font-family="Helvetica,sans-Serif" font-size="10.00" fill="#ffffff">services.</text>
<text text-anchor="middle" x="314" y="-220.47" font-family="Helvetica,sans-Serif" font-size="10.00" fill="#ffffff">daemon</text>
</g>
<!-- MaTM_services_daemon&#45;&gt;MaTM_services_dbus -->
<g id="edge8" class="edge">
<title>MaTM_services_daemon&#45;&gt;MaTM_services_dbus</title>
<path fill="none" stroke="black" d="M297.01,-260.6C290.45,-270.48 282.86,-281.94 275.84,-292.52"/>
<polygon fill="#000000" stroke="black" points="272.72,-290.88 270.11,-301.15 278.56,-294.75 272.72,-290.88"/>
</g>
<!-- MaTM_services_daemon&#45;&gt;MaTM_theming -->
<g id="edge10" class="edge">
<title>MaTM_services_daemon&#45;&gt;MaTM_theming</title>
<path fill="none" stroke="black" d="M318.71,-262.97C321.63,-289.31 321.93,-328.82 304,-356.95 293.38,-373.61 275.55,-385.57 258.32,-393.87"/>
<polygon fill="#000000" stroke="black" points="256.55,-390.82 248.86,-398.1 259.41,-397.21 256.55,-390.82"/>
</g>
<!-- gi -->
<g id="node13" class="node">
<title>gi</title>
<polygon fill="#2424d0" stroke="black" points="473,-511.94 470,-515.94 449,-515.94 446,-511.94 419,-511.94 419,-475.94 473,-475.94 473,-511.94"/>
<text text-anchor="middle" x="446" y="-491.44" font-family="Helvetica,sans-Serif" font-size="10.00" fill="#ffffff">gi</text>
</g>
<!-- MaTM_services_daemon&#45;&gt;gi -->
<g id="edge18" class="edge">
<title>MaTM_services_daemon&#45;&gt;gi</title>
<path fill="none" stroke="black" d="M364,-316.96C377.95,-341.08 392.65,-367.76 405,-392.95 416.87,-417.16 428.34,-445.7 436.11,-466.08"/>
<polygon fill="#000000" stroke="black" points="432.91,-467.53 439.72,-475.65 439.46,-465.06 432.91,-467.53"/>
</g>
<!-- MaTM_main_msg&#45;&gt;MaTM_services_dbus -->
<g id="edge6" class="edge">
<title>MaTM_main_msg&#45;&gt;MaTM_services_dbus</title>
<path fill="none" stroke="black" d="M205.8,-158.15C214.12,-187.91 231.41,-249.73 242.59,-289.73"/>
<polygon fill="#000000" stroke="black" points="239.23,-290.7 245.29,-299.39 245.97,-288.82 239.23,-290.7"/>
</g>
<!-- MaTM_main_daemon&#45;&gt;MaTM_services_dbus -->
<g id="edge5" class="edge">
<title>MaTM_main_daemon&#45;&gt;MaTM_services_dbus</title>
<path fill="none" stroke="black" d="M291.72,-163.28C280.98,-174.64 269.37,-189.35 263,-204.98 252.2,-231.5 250,-263.89 250.34,-288.63"/>
<polygon fill="#000000" stroke="black" points="246.84,-288.83 250.62,-298.73 253.84,-288.63 246.84,-288.83"/>
</g>
<!-- MaTM_main_daemon&#45;&gt;MaTM_services_daemon -->
<g id="edge4" class="edge">
<title>MaTM_main_daemon&#45;&gt;MaTM_services_daemon</title>
<path fill="none" stroke="black" d="M315.39,-169.09C315.21,-177.13 315.02,-186.03 314.83,-194.57"/>
<polygon fill="#000000" stroke="black" points="311.33,-194.66 314.61,-204.73 318.33,-194.81 311.33,-194.66"/>
</g>
</g>
</svg>
